<?xml version="1.0" encoding="UTF-8"?>
<svg xmlns="http://www.w3.org/2000/svg" xmlns:xlink="http://www.w3.org/1999/xlink" width="16px" height="18px" viewBox="0 0 16 17" version="1.1">
<defs>
<filter id="alpha" filterUnits="objectBoundingBox" x="0%" y="0%" width="100%" height="100%">
  <feColorMatrix type="matrix" in="SourceGraphic" values="0 0 0 0 1 0 0 0 0 1 0 0 0 0 1 0 0 0 1 0"/>
</filter>
<mask id="mask0">
  <g filter="url(#alpha)">
<rect x="0" y="0" width="16" height="17" style="fill:rgb(0%,0%,0%);fill-opacity:0.00392157;stroke:none;"/>
  </g>
</mask>
<clipPath id="clip1">
  <rect x="0" y="0" width="16" height="17"/>
</clipPath>
<g id="surface6" clip-path="url(#clip1)">
<path style=" stroke:none;fill-rule:evenodd;fill:rgb(99.607843%,100%,99.607843%);fill-opacity:1;" d="M 7.945312 0.128906 C 8.019531 0.164062 8.019531 0.164062 7.945312 0.128906 Z M 7.945312 0.128906 "/>
</g>
<mask id="mask1">
  <g filter="url(#alpha)">
<rect x="0" y="0" width="16" height="17" style="fill:rgb(0%,0%,0%);fill-opacity:0.427451;stroke:none;"/>
  </g>
</mask>
<clipPath id="clip2">
  <rect x="0" y="0" width="16" height="17"/>
</clipPath>
<g id="surface9" clip-path="url(#clip2)">
<path style=" stroke:none;fill-rule:evenodd;fill:rgb(69.019608%,69.803922%,71.372549%);fill-opacity:1;" d="M 2.902344 3.195312 C 2.820312 3.078125 2.714844 2.980469 2.578125 2.910156 C 2.417969 2.875 2.273438 2.898438 2.140625 2.988281 C 2.167969 2.941406 2.203125 2.894531 2.25 2.859375 C 2.589844 2.769531 2.804688 2.882812 2.902344 3.195312 Z M 2.902344 3.195312 "/>
</g>
<mask id="mask2">
  <g filter="url(#alpha)">
<rect x="0" y="0" width="16" height="17" style="fill:rgb(0%,0%,0%);fill-opacity:0.427451;stroke:none;"/>
  </g>
</mask>
<clipPath id="clip3">
  <rect x="0" y="0" width="16" height="17"/>
</clipPath>
<g id="surface12" clip-path="url(#clip3)">
<path style=" stroke:none;fill-rule:evenodd;fill:rgb(69.019608%,69.803922%,71.764706%);fill-opacity:1;" d="M 14.292969 3.664062 C 14.152344 3.40625 13.988281 3.15625 13.804688 2.910156 C 13.695312 2.875 13.585938 2.875 13.476562 2.910156 C 13.425781 2.988281 13.351562 3.03125 13.261719 3.042969 C 13.40625 2.84375 13.605469 2.78125 13.859375 2.859375 C 14.066406 3.09375 14.210938 3.363281 14.292969 3.664062 Z M 14.292969 3.664062 "/>
</g>
<mask id="mask3">
  <g filter="url(#alpha)">
<rect x="0" y="0" width="16" height="17" style="fill:rgb(0%,0%,0%);fill-opacity:0.427451;stroke:none;"/>
  </g>
</mask>
<clipPath id="clip4">
  <rect x="0" y="0" width="16" height="17"/>
</clipPath>
<g id="surface15" clip-path="url(#clip4)">
<path style=" stroke:none;fill-rule:evenodd;fill:rgb(69.411765%,69.803922%,71.764706%);fill-opacity:1;" d="M 1.980469 3.300781 C 1.964844 3.429688 1.910156 3.535156 1.816406 3.613281 C 1.832031 3.484375 1.886719 3.382812 1.980469 3.300781 Z M 1.980469 3.300781 "/>
</g>
<mask id="mask4">
  <g filter="url(#alpha)">
<rect x="0" y="0" width="16" height="17" style="fill:rgb(0%,0%,0%);fill-opacity:0.956863;stroke:none;"/>
  </g>
</mask>
<clipPath id="clip5">
  <rect x="0" y="0" width="16" height="17"/>
</clipPath>
<g id="surface18" clip-path="url(#clip5)">
<path style=" stroke:none;fill-rule:evenodd;fill:rgb(80.392157%,81.176471%,83.529412%);fill-opacity:1;" d="M 8 3.5625 C 8.332031 3.59375 8.40625 3.738281 8.21875 4.003906 C 7.980469 4.035156 7.863281 3.941406 7.863281 3.71875 C 7.902344 3.65625 7.949219 3.601562 8 3.5625 Z M 8 3.5625 "/>
</g>
<mask id="mask5">
  <g filter="url(#alpha)">
<rect x="0" y="0" width="16" height="17" style="fill:rgb(0%,0%,0%);fill-opacity:0.427451;stroke:none;"/>
  </g>
</mask>
<clipPath id="clip6">
  <rect x="0" y="0" width="16" height="17"/>
</clipPath>
<g id="surface21" clip-path="url(#clip6)">
<path style=" stroke:none;fill-rule:evenodd;fill:rgb(69.803922%,70.196078%,72.156863%);fill-opacity:1;" d="M 13.152344 3.25 C 13.152344 3.457031 13.171875 3.667969 13.207031 3.875 C 13.128906 3.761719 13.09375 3.628906 13.097656 3.484375 C 13.097656 3.394531 13.117188 3.316406 13.152344 3.25 Z M 13.152344 3.25 "/>
</g>
<mask id="mask6">
  <g filter="url(#alpha)">
<rect x="0" y="0" width="16" height="17" style="fill:rgb(0%,0%,0%);fill-opacity:0.427451;stroke:none;"/>
  </g>
</mask>
<clipPath id="clip7">
  <rect x="0" y="0" width="16" height="17"/>
</clipPath>
<g id="surface24" clip-path="url(#clip7)">
<path style=" stroke:none;fill-rule:evenodd;fill:rgb(69.019608%,69.803922%,71.372549%);fill-opacity:1;" d="M 2.902344 3.195312 C 2.980469 3.273438 3.015625 3.367188 3.011719 3.484375 C 2.972656 3.714844 2.902344 3.933594 2.792969 4.132812 C 2.832031 3.914062 2.882812 3.695312 2.957031 3.484375 C 2.933594 3.386719 2.914062 3.292969 2.902344 3.195312 Z M 2.902344 3.195312 "/>
</g>
<mask id="mask7">
  <g filter="url(#alpha)">
<rect x="0" y="0" width="16" height="17" style="fill:rgb(0%,0%,0%);fill-opacity:0.427451;stroke:none;"/>
  </g>
</mask>
<clipPath id="clip8">
  <rect x="0" y="0" width="16" height="17"/>
</clipPath>
<g id="surface27" clip-path="url(#clip8)">
<path style=" stroke:none;fill-rule:evenodd;fill:rgb(68.627451%,69.411765%,70.980392%);fill-opacity:1;" d="M 14.292969 3.664062 C 14.402344 3.738281 14.457031 3.84375 14.453125 3.976562 C 14.371094 3.890625 14.316406 3.785156 14.292969 3.664062 Z M 14.292969 3.664062 "/>
</g>
<mask id="mask8">
  <g filter="url(#alpha)">
<rect x="0" y="0" width="16" height="17" style="fill:rgb(0%,0%,0%);fill-opacity:0.980392;stroke:none;"/>
  </g>
</mask>
<clipPath id="clip9">
  <rect x="0" y="0" width="16" height="17"/>
</clipPath>
<g id="surface30" clip-path="url(#clip9)">
<path style=" stroke:none;fill-rule:evenodd;fill:rgb(80.392157%,81.568627%,83.529412%);fill-opacity:1;" d="M 9.246094 4.082031 C 9.609375 4.035156 9.824219 4.183594 9.898438 4.523438 C 9.792969 4.867188 9.554688 4.988281 9.191406 4.886719 C 8.898438 4.597656 8.914062 4.328125 9.246094 4.082031 Z M 9.246094 4.082031 "/>
</g>
<mask id="mask9">
  <g filter="url(#alpha)">
<rect x="0" y="0" width="16" height="17" style="fill:rgb(0%,0%,0%);fill-opacity:0.427451;stroke:none;"/>
  </g>
</mask>
<clipPath id="clip10">
  <rect x="0" y="0" width="16" height="17"/>
</clipPath>
<g id="surface33" clip-path="url(#clip10)">
<path style=" stroke:none;fill-rule:evenodd;fill:rgb(69.019608%,69.803922%,71.372549%);fill-opacity:1;" d="M 14.453125 3.976562 C 14.566406 4.050781 14.617188 4.15625 14.617188 4.289062 C 14.535156 4.203125 14.480469 4.097656 14.453125 3.976562 Z M 14.453125 3.976562 "/>
</g>
<mask id="mask10">
  <g filter="url(#alpha)">
<rect x="0" y="0" width="16" height="17" style="fill:rgb(0%,0%,0%);fill-opacity:0.427451;stroke:none;"/>
  </g>
</mask>
<clipPath id="clip11">
  <rect x="0" y="0" width="16" height="17"/>
</clipPath>
<g id="surface36" clip-path="url(#clip11)">
<path style=" stroke:none;fill-rule:evenodd;fill:rgb(69.019608%,69.411765%,70.980392%);fill-opacity:1;" d="M 1.601562 4.027344 C 1.574219 4.148438 1.519531 4.253906 1.4375 4.339844 C 1.433594 4.207031 1.488281 4.101562 1.601562 4.027344 Z M 1.601562 4.027344 "/>
</g>
<mask id="mask11">
  <g filter="url(#alpha)">
<rect x="0" y="0" width="16" height="17" style="fill:rgb(0%,0%,0%);fill-opacity:0.996078;stroke:none;"/>
  </g>
</mask>
<clipPath id="clip12">
  <rect x="0" y="0" width="16" height="17"/>
</clipPath>
<g id="surface39" clip-path="url(#clip12)">
<path style=" stroke:none;fill-rule:evenodd;fill:rgb(80.392157%,81.176471%,83.529412%);fill-opacity:1;" d="M 6.425781 4.339844 C 7.761719 4.3125 8.386719 4.9375 8.296875 6.210938 C 8.039062 7.140625 7.414062 7.546875 6.425781 7.433594 C 5.660156 7.203125 5.226562 6.699219 5.125 5.925781 C 5.171875 5.09375 5.605469 4.566406 6.425781 4.339844 Z M 6.425781 4.339844 "/>
</g>
<mask id="mask12">
  <g filter="url(#alpha)">
<rect x="0" y="0" width="16" height="17" style="fill:rgb(0%,0%,0%);fill-opacity:0.427451;stroke:none;"/>
  </g>
</mask>
<clipPath id="clip13">
  <rect x="0" y="0" width="16" height="17"/>
</clipPath>
<g id="surface42" clip-path="url(#clip13)">
<path style=" stroke:none;fill-rule:evenodd;fill:rgb(69.019608%,69.411765%,71.372549%);fill-opacity:1;" d="M 13.207031 3.875 C 13.324219 4.144531 13.433594 4.421875 13.53125 4.703125 C 13.351562 4.457031 13.242188 4.179688 13.207031 3.875 Z M 13.207031 3.875 "/>
</g>
<mask id="mask13">
  <g filter="url(#alpha)">
<rect x="0" y="0" width="16" height="17" style="fill:rgb(0%,0%,0%);fill-opacity:0.419608;stroke:none;"/>
  </g>
</mask>
<clipPath id="clip14">
  <rect x="0" y="0" width="16" height="17"/>
</clipPath>
<g id="surface45" clip-path="url(#clip14)">
<path style=" stroke:none;fill-rule:evenodd;fill:rgb(68.627451%,69.411765%,70.980392%);fill-opacity:1;" d="M 1.328125 4.496094 C 1.332031 4.632812 1.277344 4.734375 1.167969 4.808594 C 1.191406 4.6875 1.246094 4.585938 1.328125 4.496094 Z M 1.328125 4.496094 "/>
</g>
<mask id="mask14">
  <g filter="url(#alpha)">
<rect x="0" y="0" width="16" height="17" style="fill:rgb(0%,0%,0%);fill-opacity:0.427451;stroke:none;"/>
  </g>
</mask>
<clipPath id="clip15">
  <rect x="0" y="0" width="16" height="17"/>
</clipPath>
<g id="surface48" clip-path="url(#clip15)">
<path style=" stroke:none;fill-rule:evenodd;fill:rgb(69.019608%,69.803922%,71.372549%);fill-opacity:1;" d="M 14.617188 4.289062 C 14.753906 4.484375 14.863281 4.691406 14.941406 4.914062 C 14.777344 4.734375 14.667969 4.527344 14.617188 4.289062 Z M 14.617188 4.289062 "/>
</g>
<mask id="mask15">
  <g filter="url(#alpha)">
<rect x="0" y="0" width="16" height="17" style="fill:rgb(0%,0%,0%);fill-opacity:0.427451;stroke:none;"/>
  </g>
</mask>
<clipPath id="clip16">
  <rect x="0" y="0" width="16" height="17"/>
</clipPath>
<g id="surface51" clip-path="url(#clip16)">
<path style=" stroke:none;fill-rule:evenodd;fill:rgb(69.803922%,70.196078%,72.156863%);fill-opacity:1;" d="M 2.792969 4.132812 C 2.601562 4.621094 2.394531 5.105469 2.167969 5.589844 C 2.132812 5.628906 2.089844 5.644531 2.035156 5.640625 C 2.273438 5.128906 2.527344 4.628906 2.792969 4.132812 Z M 2.792969 4.132812 "/>
</g>
<mask id="mask16">
  <g filter="url(#alpha)">
<rect x="0" y="0" width="16" height="17" style="fill:rgb(0%,0%,0%);fill-opacity:0.521569;stroke:none;"/>
  </g>
</mask>
<clipPath id="clip17">
  <rect x="0" y="0" width="16" height="17"/>
</clipPath>
<g id="surface54" clip-path="url(#clip17)">
<path style=" stroke:none;fill-rule:evenodd;fill:rgb(70.980392%,71.764706%,73.72549%);fill-opacity:1;" d="M 14.941406 4.914062 C 15.042969 5.085938 15.070312 5.277344 15.023438 5.484375 C 14.964844 5.617188 14.867188 5.707031 14.726562 5.746094 C 14.992188 5.519531 15.066406 5.242188 14.941406 4.914062 Z M 14.941406 4.914062 "/>
</g>
<mask id="mask17">
  <g filter="url(#alpha)">
<rect x="0" y="0" width="16" height="17" style="fill:rgb(0%,0%,0%);fill-opacity:0.427451;stroke:none;"/>
  </g>
</mask>
<clipPath id="clip18">
  <rect x="0" y="0" width="16" height="17"/>
</clipPath>
<g id="surface57" clip-path="url(#clip18)">
<path style=" stroke:none;fill-rule:evenodd;fill:rgb(68.627451%,69.411765%,70.980392%);fill-opacity:1;" d="M 13.859375 5.378906 C 13.984375 5.535156 14.128906 5.675781 14.292969 5.796875 C 14.054688 5.746094 13.910156 5.605469 13.859375 5.378906 Z M 13.859375 5.378906 "/>
</g>
<mask id="mask18">
  <g filter="url(#alpha)">
<rect x="0" y="0" width="16" height="17" style="fill:rgb(0%,0%,0%);fill-opacity:0.427451;stroke:none;"/>
  </g>
</mask>
<clipPath id="clip19">
  <rect x="0" y="0" width="16" height="17"/>
</clipPath>
<g id="surface60" clip-path="url(#clip19)">
<path style=" stroke:none;fill-rule:evenodd;fill:rgb(69.019608%,69.411765%,71.372549%);fill-opacity:1;" d="M 1.21875 5.640625 C 1.332031 5.695312 1.441406 5.746094 1.546875 5.796875 C 1.390625 5.820312 1.28125 5.769531 1.21875 5.640625 Z M 1.21875 5.640625 "/>
</g>
<mask id="mask19">
  <g filter="url(#alpha)">
<rect x="0" y="0" width="16" height="17" style="fill:rgb(0%,0%,0%);fill-opacity:0.854902;stroke:none;"/>
  </g>
</mask>
<clipPath id="clip20">
  <rect x="0" y="0" width="16" height="17"/>
</clipPath>
<g id="surface63" clip-path="url(#clip20)">
<path style=" stroke:none;fill-rule:evenodd;fill:rgb(85.490196%,85.490196%,85.490196%);fill-opacity:1;" d="M 1.113281 7.617188 C 1.242188 7.625 1.296875 7.695312 1.273438 7.824219 C 1.265625 7.933594 1.238281 8.035156 1.191406 8.136719 C 1.167969 8.039062 1.101562 7.980469 1.003906 7.953125 C 1.070312 7.878906 1.070312 7.800781 1.003906 7.71875 C 1.042969 7.683594 1.078125 7.648438 1.113281 7.617188 Z M 1.113281 7.617188 "/>
</g>
<mask id="mask20">
  <g filter="url(#alpha)">
<rect x="0" y="0" width="16" height="17" style="fill:rgb(0%,0%,0%);fill-opacity:0.00392157;stroke:none;"/>
  </g>
</mask>
<clipPath id="clip21">
  <rect x="0" y="0" width="16" height="17"/>
</clipPath>
<g id="surface66" clip-path="url(#clip21)">
<path style=" stroke:none;fill-rule:evenodd;fill:rgb(99.607843%,100%,99.607843%);fill-opacity:1;" d="M 3.28125 10.476562 C 3.355469 10.511719 3.355469 10.511719 3.28125 10.476562 Z M 3.28125 10.476562 "/>
</g>
<mask id="mask21">
  <g filter="url(#alpha)">
<rect x="0" y="0" width="16" height="17" style="fill:rgb(0%,0%,0%);fill-opacity:0.996078;stroke:none;"/>
  </g>
</mask>
<clipPath id="clip22">
  <rect x="0" y="0" width="16" height="17"/>
</clipPath>
<g id="surface69" clip-path="url(#clip22)">
<path style=" stroke:none;fill-rule:evenodd;fill:rgb(80.392157%,81.176471%,83.529412%);fill-opacity:1;" d="M 6.589844 10.734375 C 6.847656 10.753906 7.101562 10.796875 7.347656 10.867188 C 7.410156 10.910156 7.445312 10.96875 7.457031 11.046875 C 7.3125 11.65625 7.332031 12.265625 7.511719 12.867188 C 7.441406 12.960938 7.386719 13.066406 7.347656 13.179688 C 6.972656 12.945312 6.730469 12.617188 6.617188 12.191406 C 6.519531 11.707031 6.511719 11.222656 6.589844 10.734375 Z M 6.589844 10.734375 "/>
</g>
<mask id="mask22">
  <g filter="url(#alpha)">
<rect x="0" y="0" width="16" height="17" style="fill:rgb(0%,0%,0%);fill-opacity:0.996078;stroke:none;"/>
  </g>
</mask>
<clipPath id="clip23">
  <rect x="0" y="0" width="16" height="17"/>
</clipPath>
<g id="surface72" clip-path="url(#clip23)">
<path style=" stroke:none;fill-rule:evenodd;fill:rgb(80.784314%,81.568627%,83.921569%);fill-opacity:1;" d="M 9.191406 10.734375 C 9.285156 10.734375 9.375 10.734375 9.464844 10.734375 C 9.554688 11.277344 9.527344 11.816406 9.382812 12.347656 C 9.28125 12.597656 9.136719 12.820312 8.949219 13.023438 C 8.878906 13.132812 8.78125 13.183594 8.652344 13.179688 C 8.664062 13.058594 8.648438 12.945312 8.597656 12.839844 C 8.664062 12.515625 8.71875 12.1875 8.757812 11.851562 C 8.710938 11.53125 8.683594 11.210938 8.679688 10.890625 C 8.855469 10.835938 9.027344 10.785156 9.191406 10.734375 Z M 9.191406 10.734375 "/>
</g>
</defs>
<g id="surface1">
<path style=" stroke:none;fill-rule:evenodd;fill:rgb(80.392157%,81.176471%,83.529412%);fill-opacity:1;" d="M 15.972656 5.902344 C 15.972656 5.917969 15.972656 5.933594 15.972656 5.953125 C 15.910156 6.035156 15.847656 6.121094 15.78125 6.210938 C 15.597656 6.699219 15.398438 7.183594 15.1875 7.667969 C 15.136719 7.75 15.070312 7.820312 14.996094 7.875 C 14.921875 7.824219 14.851562 7.769531 14.78125 7.71875 C 14.726562 7.550781 14.691406 7.539062 14.671875 7.695312 C 14.734375 8.046875 14.953125 8.253906 15.320312 8.316406 C 15.371094 8.386719 15.386719 8.464844 15.375 8.550781 C 15.433594 8.542969 15.488281 8.554688 15.539062 8.578125 C 15.246094 9.3125 14.964844 10.046875 14.699219 10.789062 C 14.308594 12.128906 13.890625 13.464844 13.449219 14.789062 C 13.28125 14.925781 13.101562 15.046875 12.910156 15.15625 C 12.785156 15.339844 12.675781 15.527344 12.582031 15.726562 C 12.496094 15.5625 12.480469 15.390625 12.527344 15.207031 C 12.980469 13.664062 13.085938 12.105469 12.855469 10.527344 C 12.800781 10.492188 12.746094 10.457031 12.691406 10.421875 C 12.496094 10.464844 12.308594 10.523438 12.121094 10.605469 C 12.128906 10.9375 11.945312 11.121094 11.578125 11.152344 C 11.480469 11.148438 11.390625 11.121094 11.308594 11.074219 C 11.1875 10.902344 11.089844 10.722656 11.011719 10.527344 C 10.832031 10.421875 10.660156 10.308594 10.496094 10.191406 C 10.59375 10.09375 10.695312 10 10.792969 9.902344 C 10.9375 9.585938 11.042969 9.257812 11.117188 8.914062 C 11.214844 8.789062 11.34375 8.703125 11.5 8.65625 C 11.660156 8.726562 11.824219 8.796875 11.988281 8.863281 C 12.167969 8.429688 12.257812 7.976562 12.257812 7.511719 C 12.039062 7.398438 11.839844 7.261719 11.660156 7.097656 C 11.316406 5.867188 10.972656 4.636719 10.628906 3.40625 C 10.371094 2.878906 9.945312 2.539062 9.355469 2.390625 C 8.234375 2.085938 7.148438 2.171875 6.101562 2.652344 C 5.78125 2.84375 5.554688 3.113281 5.421875 3.457031 C 5.085938 4.664062 4.757812 5.878906 4.449219 7.097656 C 4.363281 7.160156 4.300781 7.238281 4.257812 7.332031 C 4.1875 7.367188 4.125 7.355469 4.066406 7.304688 C 4.03125 7.441406 3.996094 7.441406 3.960938 7.304688 C 3.9375 7.46875 3.875 7.617188 3.769531 7.746094 C 3.855469 8.089844 3.957031 8.425781 4.066406 8.761719 C 4.085938 8.742188 4.105469 8.726562 4.121094 8.707031 C 4.160156 8.753906 4.203125 8.789062 4.257812 8.8125 C 4.625 8.574219 4.886719 8.660156 5.042969 9.070312 C 5.078125 9.5 5.25 9.863281 5.558594 10.164062 C 5.414062 10.292969 5.261719 10.417969 5.097656 10.527344 C 4.984375 10.722656 4.867188 10.914062 4.746094 11.097656 C 4.566406 11.167969 4.382812 11.167969 4.203125 11.097656 C 4.078125 10.878906 3.933594 10.667969 3.769531 10.476562 C 3.59375 10.425781 3.410156 10.40625 3.226562 10.421875 C 3.179688 11.039062 3.125 11.65625 3.0625 12.269531 C 3.164062 13.289062 3.308594 14.300781 3.5 15.308594 C 3.488281 15.378906 3.480469 15.449219 3.472656 15.519531 C 3.433594 15.566406 3.386719 15.578125 3.335938 15.542969 C 3.261719 15.402344 3.195312 15.253906 3.144531 15.101562 C 2.984375 15.015625 2.820312 14.929688 2.65625 14.84375 C 2.019531 12.835938 1.359375 10.832031 0.679688 8.839844 C 0.695312 8.820312 0.714844 8.804688 0.730469 8.785156 C 0.652344 8.726562 0.5625 8.691406 0.460938 8.683594 C 0.714844 8.578125 0.894531 8.40625 1.003906 8.160156 C 0.800781 7.375 0.496094 6.632812 0.0820312 5.925781 C 0.566406 5.125 1.046875 4.320312 1.519531 3.507812 C 1.855469 2.789062 2.207031 2.078125 2.578125 1.378906 C 2.398438 1.261719 2.226562 1.140625 2.0625 1.015625 C 1.949219 0.777344 1.792969 0.570312 1.601562 0.390625 C 1.757812 0.296875 1.921875 0.199219 2.089844 0.105469 C 2.285156 0.0351562 2.429688 0.0898438 2.523438 0.261719 C 2.855469 0.445312 3.199219 0.621094 3.550781 0.78125 C 3.671875 0.847656 3.6875 0.933594 3.605469 1.039062 C 3.75 1.382812 4.003906 1.625 4.367188 1.769531 C 4.914062 1.917969 5.457031 1.886719 5.992188 1.664062 C 6.078125 1.601562 6.140625 1.523438 6.183594 1.429688 C 6.203125 1.199219 6.1875 0.972656 6.128906 0.753906 C 6.492188 0.519531 6.871094 0.3125 7.269531 0.128906 C 7.539062 0.222656 7.820312 0.25 8.109375 0.207031 C 8.054688 0.101562 8.101562 0.0390625 8.242188 0.0273438 C 8.324219 0.0898438 8.414062 0.144531 8.515625 0.183594 C 8.589844 0.171875 8.660156 0.152344 8.730469 0.128906 C 9.207031 0.292969 9.640625 0.515625 10.035156 0.804688 C 10.011719 0.972656 9.96875 1.136719 9.898438 1.300781 C 9.988281 1.578125 10.1875 1.75 10.496094 1.820312 C 11.222656 1.988281 11.847656 1.820312 12.367188 1.324219 C 12.414062 1.152344 12.460938 0.980469 12.5 0.804688 C 12.933594 0.625 13.332031 0.390625 13.695312 0.105469 C 13.824219 0.09375 13.941406 0.0859375 14.046875 0.078125 C 14.203125 0.164062 14.375 0.265625 14.5625 0.390625 C 14.335938 0.621094 14.121094 0.863281 13.910156 1.117188 C 13.792969 1.199219 13.667969 1.269531 13.53125 1.324219 C 14.234375 2.914062 15.046875 4.441406 15.972656 5.902344 Z M 2.902344 3.195312 C 2.914062 3.292969 2.933594 3.386719 2.957031 3.484375 C 2.882812 3.695312 2.832031 3.914062 2.792969 4.132812 C 2.527344 4.628906 2.273438 5.128906 2.035156 5.640625 C 1.898438 5.765625 1.734375 5.816406 1.546875 5.796875 C 1.441406 5.746094 1.332031 5.695312 1.21875 5.640625 C 1.144531 5.523438 1.089844 5.390625 1.058594 5.25 C 1.101562 5.105469 1.136719 4.957031 1.167969 4.808594 C 1.277344 4.734375 1.332031 4.632812 1.328125 4.496094 C 1.40625 4.472656 1.441406 4.421875 1.4375 4.339844 C 1.519531 4.253906 1.574219 4.148438 1.601562 4.027344 C 1.683594 3.898438 1.753906 3.757812 1.816406 3.613281 C 1.910156 3.535156 1.964844 3.429688 1.980469 3.300781 C 2.03125 3.199219 2.085938 3.097656 2.140625 2.988281 C 2.273438 2.898438 2.417969 2.875 2.578125 2.910156 C 2.714844 2.980469 2.820312 3.078125 2.902344 3.195312 Z M 14.292969 3.664062 C 14.316406 3.785156 14.371094 3.890625 14.453125 3.976562 C 14.480469 4.097656 14.535156 4.203125 14.617188 4.289062 C 14.667969 4.527344 14.777344 4.734375 14.941406 4.914062 C 15.066406 5.242188 14.992188 5.519531 14.726562 5.746094 C 14.582031 5.777344 14.4375 5.792969 14.292969 5.796875 C 14.128906 5.675781 13.984375 5.535156 13.859375 5.378906 C 13.769531 5.144531 13.660156 4.917969 13.53125 4.703125 C 13.433594 4.421875 13.324219 4.144531 13.207031 3.875 C 13.171875 3.667969 13.152344 3.457031 13.152344 3.25 C 13.214844 3.195312 13.253906 3.128906 13.261719 3.042969 C 13.351562 3.03125 13.425781 2.988281 13.476562 2.910156 C 13.585938 2.875 13.695312 2.875 13.804688 2.910156 C 13.988281 3.15625 14.152344 3.40625 14.292969 3.664062 Z M 14.292969 3.664062 "/>
<use xlink:href="#surface6" mask="url(#mask0)"/>
<use xlink:href="#surface9" mask="url(#mask1)"/>
<use xlink:href="#surface12" mask="url(#mask2)"/>
<use xlink:href="#surface15" mask="url(#mask3)"/>
<use xlink:href="#surface18" mask="url(#mask4)"/>
<use xlink:href="#surface21" mask="url(#mask5)"/>
<use xlink:href="#surface24" mask="url(#mask6)"/>
<use xlink:href="#surface27" mask="url(#mask7)"/>
<use xlink:href="#surface30" mask="url(#mask8)"/>
<use xlink:href="#surface33" mask="url(#mask9)"/>
<use xlink:href="#surface36" mask="url(#mask10)"/>
<use xlink:href="#surface39" mask="url(#mask11)"/>
<use xlink:href="#surface42" mask="url(#mask12)"/>
<use xlink:href="#surface45" mask="url(#mask13)"/>
<use xlink:href="#surface48" mask="url(#mask14)"/>
<use xlink:href="#surface51" mask="url(#mask15)"/>
<use xlink:href="#surface54" mask="url(#mask16)"/>
<use xlink:href="#surface57" mask="url(#mask17)"/>
<use xlink:href="#surface60" mask="url(#mask18)"/>
<use xlink:href="#surface63" mask="url(#mask19)"/>
<path style=" stroke:none;fill-rule:evenodd;fill:rgb(80.392157%,81.568627%,83.529412%);fill-opacity:1;" d="M 14.78125 7.71875 C 14.742188 7.753906 14.742188 7.753906 14.78125 7.71875 Z M 14.78125 7.71875 "/>
<use xlink:href="#surface66" mask="url(#mask20)"/>
<use xlink:href="#surface69" mask="url(#mask21)"/>
<use xlink:href="#surface72" mask="url(#mask22)"/>
<path style=" stroke:none;fill-rule:evenodd;fill:rgb(80.392157%,81.176471%,83.529412%);fill-opacity:1;" d="M 8.054688 16.972656 C 8.035156 16.972656 8.019531 16.972656 8 16.972656 C 7.921875 15.328125 7.859375 13.683594 7.808594 12.035156 C 7.621094 11.773438 7.628906 11.523438 7.835938 11.28125 C 7.984375 11.238281 8.128906 11.246094 8.269531 11.308594 C 8.390625 11.53125 8.425781 11.765625 8.378906 12.007812 C 8.328125 12.035156 8.273438 12.042969 8.21875 12.035156 C 8.207031 13.019531 8.199219 14.007812 8.191406 15 C 8.140625 15.65625 8.09375 16.316406 8.054688 16.972656 Z M 8.054688 16.972656 "/>
</g>
</svg>
